#!OML:ASF E:\Steps\Project 1\Capture day 1\Session 2\Subject.ASF
:FULLY-SPECIFIED
:DEGREES
158
root 9.73222 11.8276 11.1945 -132.501 -1.5365 -180.286
lowerback 0.20242 -1.36439 -4.63683
upperback -0.410301 -1.91178 -1.23403
thorax -0.427891 -0.968586 1.33937
lowerneck 0.370451 -0.188989 -3.73622
upperneck 9.0598 -0.279314 6.54554
head 2.88293 0.0875842 2.81502
rclavicle 3.26007e-014 4.77083e-014
rhumerus -42.2394 1.96189 -77.8784
rradius 36.7171
rwrist -4.28474
rhand -10.7231 -46.571
rfingers 7.12502
rthumb 15.2872 -75.986
lclavicle 3.26007e-014 4.77083e-014
lhumerus -39.0978 -23.8857 79.7575
lradius 33.7568
lwrist 0.230714
lhand -24.2316 -18.3601
lfingers 7.12502
lthumb 2.25368 11.6077
rfemur -101.912 4.88419 20.5629
rtibia 93.2064
rfoot -47.1836 -12.145
rtoes -37.0496
lfemur -104.117 -1.03792 -22.6584
ltibia 86.0426
lfoot -192.704 52.2687
ltoes -16.5256
159
root 9.74077 11.7401 11.1985 -132.606 -1.87197 -180.301
lowerback 0.789371 -1.38142 -4.57375
upperback -0.4432 -1.96995 -1.2363
thorax -0.789699 -0.989811 1.31952
lowerneck 0.49644 -0.182384 -3.69451
upperneck 9.07832 -0.265585 6.51527
head 2.86427 0.0958341 2.79623
rclavicle 3.97569e-015 -4.77083e-015
rhumerus -41.3507 2.71603 -78.5211
rradius 37.1268
rwrist -4.89643
rhand -10.9368 -46.7444
rfingers 7.12502
rthumb 15.0814 -76.175
lclavicle 3.97569e-015 -4.77083e-015
lhumerus -37.494 -23.3764 79.3528
lradius 32.9757
lwrist -0.390707
lhand -24.6115 -19.3191
lfingers 7.12502
lthumb 1.88674 10.6523
rfemur -102.369 4.75698 20.9658
rtibia 94.304
rfoot -47.6341 -12.3267
rtoes -37.5348
lfemur -104.818 -1.21991 -22.4595
ltibia 84.4575
lfoot -198.219 43.2197
ltoes -14.6776
160
root 9.74494 11.6507 11.1904 -132.664 -2.01079 -180.087
lowerback 0.907987 -1.29799 -4.42437
upperback -0.383876 -1.86068 -1.27625
thorax -0.807233 -0.936002 1.19651
lowerneck 0.530891 -0.192082 -3.57879
upperneck 9.09188 -0.275654 6.47658
head 2.8615 0.0947044 2.76108
rclavicle 1.35174e-014 1.35174e-014
rhumerus -40.2668 3.41643 -79.1416
rradius 37.6351
rwrist -5.54051
rhand -10.789 -47.091
rfingers 7.12502
rthumb 15.2238 -76.5108
lclavicle 1.35174e-014 1.35174e-014
lhumerus -35.5731 -22.7575 78.8006
lradius 32.0645
lwrist -1.53838
lhand -24.6241 -19.226
lfingers 7.12502
lthumb 1.87459 10.7455
rfemur -102.681 4.93255 21.3384
rtibia 94.9932
rfoot -47.7842 -12.2022
rtoes -37.0669
lfemur -105.505 -1.13109 -22.1959
ltibia 82.9087
lfoot -202.054 34.3062
ltoes -11.2341
161
root 9.75291 11.5785 11.1852 -132.795 -2.251 -179.996
lowerback 1.20435 -1.24133 -4.3801
upperback -0.351508 -1.80032 -1.30141
thorax -0.945537 -0.903667 1.15261
lowerneck 0.546197 0.316082 -3.44918
upperneck 9.05299 -0.423946 6.48983
head 2.84609 -0.297628 2.72119
rclavicle -8.74653e-015 2.38542e-015
rhumerus -39.0238 4.11171 -79.6804
rradius 37.9987
rwrist -5.96846
rhand -10.8462 -46.9898
rfingers 7.12502
rthumb 15.1687 -76.4138
lclavicle -8.74653e-015 2.38542e-015
lhumerus -33.582 -22.043 78.2292
lradius 31.1546
lwrist -2.98039
lhand -25.1614 -19.2241
lfingers 7.12502
lthumb 1.35571 10.7513
rfemur -102.828 4.93976 21.6987
rtibia 95.5462
rfoot -47.882 -11.9762
rtoes -36.2941
lfemur -105.939 -1.24733 -21.8656
ltibia 81.5189
lfoot -206.01 25.125
ltoes -9.58409
162
root 9.7601 11.5149 11.1785 -132.947 -2.41928 -179.971
lowerback 1.57257 -1.17997 -4.46726
upperback -0.444006 -1.74828 -1.35363
thorax -1.24921 -0.871172 1.15757
lowerneck 0.631181 0.300408 -3.29552
upperneck 9.08962 -0.45306 6.42911
head 2.8423 -0.311975 2.67096
rclavicle 1.19271e-014 9.54166e-015
rhumerus -37.7869 4.84116 -80.1871
rradius 38.3222
rwrist -6.17511
rhand -10.8996 -46.7957
rfingers 7.12502
rthumb 15.1172 -76.2237
lclavicle 1.19271e-014 9.54166e-015
lhumerus -31.8795 -21.2533 77.6692
lradius 30.5725
lwrist -3.9948
lhand -25.6712 -19.8615
lfingers 7.12502
lthumb 0.8633 10.1165
rfemur -103.037 4.95119 21.912
rtibia 96.2335
rfoot -48.1019 -12.0215
rtoes -36.1359
lfemur -106.212 -1.41061 -21.6078
ltibia 80.4074
lfoot -209.925 15.5385
ltoes -10.0643
163
root 9.76945 11.4685 11.1717 -133.421 -2.42249 -180.156
lowerback 1.98671 -1.12296 -4.94039
upperback -0.21337 -1.70613 -1.39318
thorax -1.235 -0.852643 1.38661
lowerneck 0.729772 0.307523 -3.21544
upperneck 9.08488 -0.446812 6.39201
head 2.82091 -0.309928 2.64257
rclavicle -1.11319e-014 -5.40694e-014
rhumerus -35.9102 5.59457 -80.4973
rradius 38.6349
rwrist -6.19971
rhand -10.5436 -47.0423
rfingers 7.12502
rthumb 15.4601 -76.444
lclavicle -1.11319e-014 -5.40694e-014
lhumerus -29.7825 -20.2963 77.072
lradius 30.2194
lwrist -4.75084
lhand -25.6354 -20.0197
lfingers 7.12502
lthumb 0.897894 9.95819
rfemur -102.969 4.93714 21.8463
rtibia 97.1026
rfoot -48.4195 -12.3103
rtoes -36.3862
lfemur -105.812 -1.6192 -21.6063
ltibia 79.9682
lfoot -213.34 6.57299
ltoes -6.91837
